<?xml version="1.0" encoding="UTF-8" standalone="no"?>
<svg width="512" height="512" viewBox="0 0 512 512" fill="none" xmlns="http://www.w3.org/2000/svg">
  <rect width="512" height="512" rx="100" fill="#2563EB"/>
  <path d="M256 120C181.307 120 120 181.307 120 256C120 330.693 181.307 392 256 392C330.693 392 392 330.693 392 256C392 181.307 330.693 120 256 120ZM256 360C198.981 360 152 313.019 152 256C152 198.981 198.981 152 256 152C313.019 152 360 198.981 360 256C360 313.019 313.019 360 256 360Z" fill="white"/>
  <path d="M256 184C216.471 184 184 216.471 184 256C184 295.529 216.471 328 256 328C295.529 328 328 295.529 328 256C328 216.471 295.529 184 256 184ZM256 296C234.327 296 216 277.673 216 256C216 234.327 234.327 216 256 216C277.673 216 296 234.327 296 256C296 277.673 277.673 296 256 296Z" fill="#FFDD00"/>
  <path d="M256 232C245.507 232 236 241.507 236 252C236 262.493 245.507 272 256 272C266.493 272 276 262.493 276 252C276 241.507 266.493 232 256 232Z" fill="white"/>
</svg>
