<?xml version="1.0" encoding="UTF-8" standalone="no"?>
<svg width="200" height="200" viewBox="0 0 200 200" fill="none" xmlns="http://www.w3.org/2000/svg">
  <path d="M100.5 10C95.5 10 91.5 13 89 19L23 155C20.5 161 20.5 166 23 170C25.5 174 30 176 36 176H58C61 176 63.5 175 65.5 173C67.5 171 69 168.5 70 165.5L78 145H123L131 165.5C132 168.5 133.5 171 135.5 173C137.5 175 140 176 143 176H165C171 176 175.5 174 178 170C180.5 166 180.5 161 178 155L112 19C109.5 13 105.5 10 100.5 10ZM100.5 50L117 90H84L100.5 50Z" fill="black"/>
</svg>
